<?xml version="1.0" encoding="utf-8"?>
<!-- Generator: Adobe Illustrator 16.0.0, SVG Export Plug-In . SVG Version: 6.00 Build 0)  -->
<!DOCTYPE svg PUBLIC "-//W3C//DTD SVG 1.1//EN" "http://www.w3.org/Graphics/SVG/1.1/DTD/svg11.dtd">
<svg version="1.1" id="圖層_1" xmlns="http://www.w3.org/2000/svg" xmlns:xlink="http://www.w3.org/1999/xlink" x="0px" y="0px"
	 width="130.953px" height="41.039px" viewBox="0.122 -0.505 130.953 41.039" enable-background="new 0.122 -0.505 130.953 41.039"
	 xml:space="preserve">
<g>
	<g>
		<path fill="#FFFFFF" d="M50.321,29.778c-0.749-0.637-1.407-1.197-2.063-1.758c0.378-0.17,0.813-0.363,1.247-0.563
			c1.64-0.762,2.563-2.063,2.642-3.85c0.081-1.826,0.019-3.66,0.019-5.562c-0.822,0.605-1.581,1.167-2.264,1.672
			c-0.653-0.612-1.25-1.171-1.91-1.789c3.123-1.867,5.634-4.354,6.854-7.962c0.845,0.396,1.604,0.75,2.406,1.127
			c-0.182,0.332-0.354,0.652-0.576,1.059c0.632,0,1.183,0,1.733,0c1.192,0,2.385,0.02,3.576-0.011
			c0.433-0.011,0.592,0.146,0.59,0.552c-0.002,0.179,0.035,0.358,0.065,0.535c0.091,0.521,0.21,0.973-0.536,1.203
			c-0.365,0.113-0.605,0.626-0.976,1.038c0.267,0.021,0.416,0.04,0.566,0.04c1.175,0.002,2.35,0.011,3.522-0.004
			c0.342-0.004,0.483,0.092,0.483,0.457c-0.011,3.721,0.011,7.442-0.015,11.165c-0.012,1.461-0.671,2.227-2.111,2.518
			c-0.644,0.131-1.31,0.146-1.94,0.211c-0.105-0.572-0.142-1.045-0.289-1.479c-0.143-0.416-0.401-0.793-0.651-1.27
			c0.48,0.059,0.913,0.119,1.348,0.154c0.425,0.037,0.854,0.047,1.325,0.07c0-1.068,0-2.068,0-3.096c-1.165,0-2.313,0-3.505,0
			c0,1.416,0,2.814,0,4.244c-0.791,0-1.557,0-2.359,0c0-1.396,0-2.809,0-4.246c-1.022,0-2.027,0-3.073,0
			C53.972,26.831,52.51,28.665,50.321,29.778z M59.818,20.682c0,0.416,0.012,0.791-0.003,1.166c-0.011,0.307,0.122,0.406,0.418,0.4
			c0.685-0.014,1.368-0.004,2.053-0.004c0.367,0,0.734,0,1.088,0c0-0.584,0-1.063,0-1.563
			C62.197,20.682,61.056,20.682,59.818,20.682z M54.412,15.512c1.073,0,2.026,0,2.979,0c0.88,0,1.517-0.481,1.813-1.39
			c-1.182,0-2.354-0.007-3.524,0.009c-0.139,0.002-0.316,0.087-0.403,0.193C54.996,14.672,54.748,15.046,54.412,15.512z
			 M54.51,20.678c0,0.533,0,1.025,0,1.531c1.025,0,2.01,0,3.001,0c0-0.529,0-1.021,0-1.531
			C56.503,20.678,55.537,20.678,54.51,20.678z M59.873,17.511c-0.164,1.209-0.164,1.209,0.944,1.21c0.231,0,0.464,0.005,0.696,0.005
			c0.618,0.001,1.236,0,1.856,0c0-0.47,0-0.836,0-1.216C62.188,17.511,61.044,17.511,59.873,17.511z M54.502,18.666
			c1.051,0,2.042,0,3.019,0c0-0.421,0-0.774,0-1.154c-1.019,0-2.001,0-3.019,0C54.502,17.911,54.502,18.279,54.502,18.666z"/>
		<path fill="#FFFFFF" d="M74.134,21.495c0.121-0.273,0.24-0.551,0.364-0.822c0.048-0.104,0.085-0.24,0.17-0.299
			c2.158-1.518,3.35-3.677,4.093-6.134c0.017-0.05,0.055-0.093,0.099-0.168c0.7,0.187,1.401,0.373,2.155,0.57
			c-0.113,0.471-0.222,0.918-0.342,1.414c2.201,0,4.362,0,6.674,0c-1.046,1.729-2.205,3.213-3.639,4.587
			c1.806,1.303,3.859,1.938,5.877,2.586c-0.521,0.621-1.022,1.217-1.585,1.885c-0.518-0.164-1.146-0.359-1.845-0.582
			c0,1.703,0,3.357,0,5.051c-0.753,0-1.442,0-2.167,0c-0.028-0.301-0.057-0.58-0.086-0.896c-1.396,0-2.776,0-4.207,0
			c-0.018,0.322-0.029,0.637-0.047,0.977c-0.779,0-1.523,0-2.294,0c0-1.672,0-3.322,0-4.998c-0.807,0.238-1.608,0.479-2.422,0.721
			c-0.112-0.162-0.201-0.289-0.314-0.453c-0.594,1.781-1.172,3.516-1.729,5.188c-0.89-0.367-1.714-0.711-2.567-1.063
			c0.461-0.754,1.013-1.535,1.438-2.381c0.827-1.643,1.584-3.314,2.366-4.98c0.027-0.061,0.015-0.141,0.021-0.211L74.134,21.495z
			 M79.622,26.86c0.087,0.027,0.137,0.061,0.188,0.063c0.848,0.006,1.694,0.014,2.543,0.014c1.677,0.002,1.667,0.002,1.602-1.668
			c-0.016-0.355-0.146-0.467-0.485-0.461c-0.828,0.016-1.657,0.004-2.487,0.004c-0.442,0-0.888,0-1.355,0
			C79.622,25.54,79.622,26.18,79.622,26.86z M78.897,19.303c-0.074,0.087-0.188,0.25-0.329,0.386
			c-0.749,0.726-1.451,1.513-2.281,2.13c-0.396,0.295-0.708,0.494-0.721,1.018c1.533-0.293,3.81-1.416,4.695-2.32
			C79.822,20.123,79.38,19.731,78.897,19.303z M81.817,19.087c0.496-0.382,0.955-0.737,1.415-1.092
			c-0.037-0.04-0.075-0.084-0.113-0.125c-0.812,0-1.622,0-2.611,0C81.047,18.373,81.475,18.77,81.817,19.087z M80.783,22.956
			c0.852,0,1.591,0,2.438,0c-0.46-0.357-0.825-0.643-1.208-0.939C81.614,22.321,81.236,22.608,80.783,22.956z"/>
		<path fill="#FFFFFF" d="M113.222,29.721c-0.721-0.549-1.438-1.1-2.156-1.646c0.382-0.178,0.852-0.383,1.312-0.605
			c2.412-1.172,3.349-3.238,3.375-5.779c0.041-3.77,0.011-7.543,0.011-11.363c0.742,0,1.544,0,2.387,0c0,1.594,0,3.218,0,4.896
			c1.451,0,2.894,0.001,4.333-0.001c0.373,0,0.309-0.284,0.305-0.507c-0.021-1.372-0.054-2.743-0.079-4.115
			c-0.004-0.214,0-0.43,0-0.684c0.821,0,1.622,0,2.45,0c0,1.737,0,3.478,0,5.265c1.961,0,3.919,0,5.916,0c0,0.724,0,1.433,0,2.192
			c-4.303,0-8.605,0-12.939,0c0,0.797,0,1.545,0,2.343c2.832,0,5.659,0,8.553,0c0.016,0.234,0.035,0.424,0.036,0.611
			c0.002,2.784-0.01,5.563,0.011,8.348c0.004,0.465-0.11,0.664-0.604,0.613c-0.376-0.039-0.762-0.043-1.137,0
			c-0.526,0.059-0.631-0.178-0.625-0.65c0.021-2.041-0.013-4.08,0.021-6.123c0.01-0.559-0.156-0.695-0.701-0.686
			c-1.66,0.037-3.323,0.031-4.983,0.002c-0.466-0.006-0.599,0.117-0.633,0.596c-0.221,3.139-1.681,5.537-4.39,7.158
			c-0.124,0.072-0.253,0.141-0.384,0.203c-0.047,0.023-0.102,0.029-0.152,0.043C113.171,29.796,113.197,29.759,113.222,29.721z"/>
		<path fill="#FFFFFF" d="M109.713,19.77c0,3.297,0,6.534,0,9.811c-0.719,0-1.411,0-2.167,0c0-0.537,0-1.07,0-1.645
			c-2.398,0-4.732,0-7.123,0c0,0.564,0,1.129,0,1.729c-0.78,0-1.51,0-2.293,0c-0.017-0.111-0.049-0.246-0.049-0.383
			c0.007-2.959,0.029-5.918,0.014-8.876c-0.003-0.507,0.099-0.68,0.64-0.677c3.48,0.023,6.963,0.013,10.443,0.013
			C109.336,19.741,109.496,19.758,109.713,19.77z M107.5,21.604c-2.401,0-4.771,0-7.192,0c0.022,0.51,0.045,0.969,0.064,1.416
			c2.424,0,4.775,0,7.128,0C107.5,22.524,107.5,22.081,107.5,21.604z M107.502,24.858c-0.173-0.02-0.313-0.045-0.452-0.045
			c-2.054-0.004-4.104,0.02-6.157-0.016c-0.623-0.012-0.513,0.363-0.542,0.732c-0.037,0.441,0.114,0.594,0.572,0.586
			c1.454-0.031,2.907-0.021,4.361-0.021c0.729-0.002,1.459,0,2.218,0C107.502,25.634,107.502,25.278,107.502,24.858z"/>
		<path fill="#FFFFFF" d="M90.974,11.515c2.025,0,4.008,0,6.04,0c0,4.943,0,9.876,0,14.845c-0.705,0-1.4,0-2.158,0
			c0-0.553,0-1.1,0-1.682c-0.558,0-1.054,0-1.635,0c0,0.547,0,1.094,0,1.678c-0.794,0-1.504,0-2.247,0
			C90.974,21.419,90.974,16.495,90.974,11.515z M94.838,22.96c0-0.313,0-0.564,0-0.813c0-2.645,0.011-5.292-0.006-7.937
			c-0.008-1.097,0.229-0.968-1.006-1.009c-0.504-0.018-0.639,0.156-0.635,0.646c0.02,2.85,0.008,5.699,0.013,8.546
			c0,0.189,0.027,0.377,0.044,0.564C93.798,22.96,94.28,22.96,94.838,22.96z"/>
		<path fill="#FFFFFF" d="M101.029,18.064c0,0.42,0,0.776,0,1.174c-0.736,0-1.43,0-2.159,0c0-2.955,0-5.885,0-8.855
			c0.22-0.012,0.416-0.028,0.609-0.029c2.903-0.002,5.811,0.007,8.714-0.009c0.467-0.002,0.663,0.092,0.657,0.621
			c-0.028,2.58-0.021,5.16-0.004,7.737c0.003,0.449-0.128,0.613-0.58,0.587c-0.533-0.032-1.069-0.009-1.623-0.009
			c-0.022-0.446-0.044-0.817-0.067-1.218C104.733,18.064,102.924,18.064,101.029,18.064z M101.07,13.306c1.854,0,3.667,0,5.487,0
			c0-0.391,0-0.751,0-1.104c-1.86,0-3.659,0-5.487,0C101.07,12.572,101.07,12.909,101.07,13.306z M101.042,15.115
			c0,0.323,0.013,0.574-0.003,0.824c-0.018,0.288,0.12,0.375,0.387,0.374c1.603-0.005,3.203,0.005,4.806-0.014
			c0.125-0.001,0.337-0.157,0.354-0.268c0.049-0.301,0.019-0.614,0.019-0.916C104.695,15.115,102.901,15.115,101.042,15.115z"/>
		<path fill="#FFFFFF" d="M69.758,13.784c0-0.647,0-1.222,0-1.853c1.552,0,3.105,0,4.697,0c0-0.698,0-1.341,0-2.021
			c0.767,0,1.496,0,2.271,0c0,0.642,0,1.298,0,1.988c1.502,0,2.992,0,4.545,0c0-0.646,0-1.301,0-1.99c0.788,0,1.519,0,2.302,0
			c0,0.648,0,1.304,0,2.002c1.793,0,3.533,0,5.289,0c0,0.634,0,1.22,0,1.854c-1.76,0-3.496,0-5.26,0c0,0.586,0,1.123,0,1.701
			c-0.755,0-1.484,0-2.271,0c0-0.52,0-1.065,0-1.677c-1.552,0-3.047,0-4.567,0c0,0.569,0,1.105,0,1.681c-0.768,0-1.51,0-2.287,0
			c0-0.428-0.024-0.84,0.007-1.248c0.026-0.375-0.075-0.499-0.477-0.485c-1.261,0.041-2.521,0.033-3.782,0.045
			C70.083,13.786,69.941,13.784,69.758,13.784z"/>
		<path fill="#FFFFFF" d="M74.147,21.479c-0.541,0.441-1.083,0.881-1.479,1.205c-1.122-1.029-2.206-2.025-3.336-3.062
			c0.521-0.591,1.003-1.138,1.547-1.755c0.548,0.521,1.091,1.007,1.6,1.525c0.526,0.541,1.027,1.109,1.523,1.68
			c0.088,0.104,0.09,0.277,0.132,0.422L74.147,21.479z"/>
		<path fill="#FFFFFF" d="M72.892,14.248c1.124,1.043,2.213,2.054,3.344,3.103c-0.538,0.579-1.036,1.116-1.572,1.696
			c-1.117-1.037-2.207-2.049-3.338-3.097C71.863,15.366,72.357,14.83,72.892,14.248z"/>
	</g>
	<circle fill="none" stroke="#FFFFFF" stroke-miterlimit="10" cx="20.641" cy="20.014" r="20.019"/>
	<path fill="#FFFFFF" d="M20.641,2.168c-9.855,0-17.846,7.99-17.846,17.847c0,9.855,7.99,17.845,17.846,17.845
		c9.857,0,17.846-7.99,17.846-17.845C38.487,10.158,30.499,2.168,20.641,2.168z M30.378,26.337c-0.002,1.951-1.26,3.307-3.203,3.332
		c-0.817,0.012-1.672-0.08-2.448-0.322c-1.448-0.449-2.186-1.776-1.967-3.234c0.12-0.808,0.579-1.369,1.322-1.604
		c0.688-0.218,1.419-0.313,2.138-0.417c0.509-0.072,1.031-0.045,1.541-0.109c0.68-0.086,0.991-0.428,1.075-1.107
		c0.02-0.164,0.021-0.332,0.021-0.498c0.001-2.779,0.002-5.558,0-8.337c-0.001-0.863-0.128-0.959-0.972-0.774
		c-3.133,0.684-6.266,1.367-9.398,2.049c-0.828,0.18-0.889,0.243-0.89,1.09c-0.004,2.38-0.002,4.76-0.002,7.139
		c0,1.73,0,3.461,0,5.191c0,1.859-0.852,2.946-2.666,3.375c-0.971,0.229-1.946,0.225-2.913-0.037
		c-1.565-0.426-2.469-2.056-1.976-3.606c0.356-1.122,1.284-1.519,2.333-1.671c0.771-0.111,1.561-0.092,2.332-0.199
		c1.046-0.146,1.366-0.545,1.367-1.604c0.005-4.393,0.002-8.786,0.002-13.179c0-1.252,0.021-1.295,1.242-1.551
		c3.936-0.823,7.873-1.638,11.812-2.449c0.928-0.191,1.247,0.081,1.248,1.053c0.004,2.945,0.001,5.891,0.001,8.835
		C30.379,20.579,30.38,23.458,30.378,26.337z"/>
</g>
</svg>
